<?xml version="1.0" standalone="no"?>
<!DOCTYPE svg PUBLIC "-//W3C//DTD SVG 1.1//EN" "http://www.w3.org/Graphics/SVG/1.1/DTD/svg11.dtd" >
<svg xmlns="http://www.w3.org/2000/svg">
<metadata></metadata>
<defs>
<font id="simpleton_gothicregular" horiz-adv-x="1152" >
<font-face units-per-em="2048" ascent="1638" descent="-410" />
<missing-glyph horiz-adv-x="766" />
<glyph horiz-adv-x="2048" />
<glyph horiz-adv-x="2048" />
<glyph unicode="&#xd;" horiz-adv-x="2048" />
<glyph unicode=" "  horiz-adv-x="766" />
<glyph unicode="&#x09;" horiz-adv-x="766" />
<glyph unicode="&#xa0;" horiz-adv-x="766" />
<glyph unicode="0" d="M0 512v512q0 210 150 360q150 152 362 152q210 0 360 -152q152 -150 152 -360v-512q0 -212 -152 -362q-150 -150 -360 -150q-212 0 -362 150t-150 362zM256 512l370 740q-52 28 -114 28q-106 0 -182 -76q-74 -76 -74 -180v-512zM396 282q52 -26 116 -26q104 0 180 74 q76 76 76 182v512z" />
<glyph unicode="1" horiz-adv-x="640" d="M0 1024l256 512h256v-1536h-256v1024h-256z" />
<glyph unicode="2" d="M0 0v256q0 210 150 360q150 152 362 152q104 0 180 74q76 76 76 182q0 104 -76 180t-180 76q-106 0 -182 -76q-74 -76 -74 -180h-256q0 210 150 360q150 152 362 152q210 0 360 -152q152 -150 152 -360q0 -212 -152 -362q-150 -150 -360 -150q-106 0 -182 -76 q-74 -76 -74 -180h768v-256h-1024z" />
<glyph unicode="3" d="M0 438h256q0 -90 74 -156q76 -62 182 -62q104 0 180 62q76 66 76 156t-76 155t-180 65v220q104 0 180 64t76 156q0 88 -76 153t-180 65q-106 0 -182 -64q-74 -66 -74 -154h-256q0 180 150 308q150 130 362 130q210 0 360 -130q152 -128 152 -308q0 -182 -152 -312 q-10 -10 -22 -18q12 -10 22 -20q152 -130 152 -310t-152 -310q-150 -128 -360 -128q-212 0 -362 129t-150 309z" />
<glyph unicode="4" d="M0 384v1152h256v-896h256v896h256v-896h256v-256h-256v-384h-256v384h-512z" />
<glyph unicode="5" d="M0 512h256q0 -106 74 -182q76 -74 182 -74q104 0 180 74q76 76 76 182q0 104 -76 180t-180 76h-512v768h1024v-256h-768v-256h256q210 0 360 -152q152 -150 152 -360q0 -212 -152 -362q-150 -150 -360 -150q-212 0 -362 150t-150 362z" />
<glyph unicode="6" d="M0 512v512q0 210 150 360q150 152 362 152h256v-256h-256q-106 0 -182 -76q-74 -76 -74 -180v-68q114 68 256 68q210 0 360 -152q152 -150 152 -360q0 -212 -152 -362q-150 -150 -360 -150q-212 0 -362 150t-150 362zM256 512q0 -106 74 -182q76 -74 182 -74 q104 0 180 74q76 76 76 182q0 104 -76 180t-180 76q-106 0 -182 -76q-74 -76 -74 -180z" />
<glyph unicode="7" d="M0 0l640 1280h-640v256h1024l-768 -1536h-256z" />
<glyph unicode="8" d="M0 438q0 180 150 310q10 10 22 20q-12 8 -22 18q-150 130 -150 312q0 180 150 308q150 130 362 130q210 0 360 -130q152 -128 152 -308q0 -182 -152 -312q-10 -10 -22 -18q12 -10 22 -20q152 -130 152 -310t-152 -310q-150 -128 -360 -128q-212 0 -362 129t-150 309z M256 438q0 -90 74 -156q76 -62 182 -62q104 0 180 62q76 66 76 156t-76 155t-180 65q-106 0 -182 -64q-74 -66 -74 -156zM256 1098q0 -92 74 -156q76 -64 182 -64q104 0 180 64t76 156q0 88 -76 153t-180 65q-106 0 -182 -64q-74 -66 -74 -154z" />
<glyph unicode="9" d="M0 1024q0 210 150 360q150 152 362 152q210 0 360 -152q152 -150 152 -360v-512q0 -212 -152 -362q-150 -150 -360 -150h-256v256h256q104 0 180 74q76 76 76 182v66h-2q-114 -66 -254 -66q-212 0 -362 150t-150 362zM256 1024q0 -106 74 -182q76 -74 182 -74 q104 0 180 74q76 76 76 182q0 104 -76 180t-180 76q-106 0 -182 -76q-74 -76 -74 -180z" />
<glyph unicode="A" d="M0 0l384 1536h256l384 -1536h-256l-64 256h-384l-64 -256h-256zM384 512h256l-128 512z" />
<glyph unicode="B" d="M0 0v1536h512q210 0 360 -130q152 -128 152 -308q0 -182 -152 -312q-10 -10 -22 -18q12 -10 22 -20q152 -130 152 -310t-152 -310q-150 -128 -360 -128h-512zM256 220h256q104 0 180 62q76 66 76 156t-76 155t-180 65h-256v-438zM256 878h256q104 0 180 64t76 156 q0 88 -76 153t-180 65h-256v-438z" />
<glyph unicode="C" d="M0 512v512q0 210 150 360q150 152 362 152q210 0 360 -152q152 -150 152 -360h-256q0 104 -76 180t-180 76q-106 0 -182 -76q-74 -76 -74 -180v-512q0 -106 74 -182q76 -74 182 -74q104 0 180 74q76 76 76 182h256q0 -212 -152 -362q-150 -150 -360 -150q-212 0 -362 150 t-150 362z" />
<glyph unicode="D" d="M0 0v1536h512q210 0 360 -152q152 -150 152 -360v-512q0 -212 -152 -362q-150 -150 -360 -150h-512zM256 256h256q104 0 180 74q76 76 76 182v512q0 104 -76 180t-180 76h-256v-1024z" />
<glyph unicode="E" d="M0 0v1536h1024v-256h-768v-256h512v-256h-512v-512h768v-256h-1024z" />
<glyph unicode="F" d="M0 0v1536h1024v-256h-768v-256h512v-256h-512v-768h-256z" />
<glyph unicode="G" d="M0 512v512q0 210 150 360q150 152 362 152q210 0 360 -152q152 -150 152 -360h-256q0 104 -76 180t-180 76q-106 0 -182 -76q-74 -76 -74 -180v-512q0 -106 74 -182q76 -74 182 -74q104 0 180 74q76 76 76 182h-256v256h512v-256q0 -212 -152 -362q-150 -150 -360 -150 q-212 0 -362 150t-150 362z" />
<glyph unicode="H" d="M0 0v1536h256v-768h512v768h256v-1536h-256v512h-512v-512h-256z" />
<glyph unicode="I" horiz-adv-x="384" d="M0 0v1536h256v-1536h-256z" />
<glyph unicode="J" d="M0 512h256q0 -106 74 -182q76 -74 182 -74q104 0 180 74q76 76 76 182v1024h256v-1024q0 -212 -152 -362q-150 -150 -360 -150q-212 0 -362 150t-150 362z" />
<glyph unicode="K" horiz-adv-x="1024" d="M0 0v1536h256v-512l384 512h256l-576 -768l576 -768h-256l-384 512v-512h-256z" />
<glyph unicode="L" d="M0 0v1536h256v-1280h768v-256h-1024z" />
<glyph unicode="M" d="M0 0v1536h256l256 -512l256 512h256v-1536h-256v1024l-256 -512l-256 512v-1024h-256z" />
<glyph unicode="N" d="M0 0v1536h256l512 -1024v1024h256v-1536h-256l-512 1024v-1024h-256z" />
<glyph unicode="O" d="M0 512v512q0 210 150 360q150 152 362 152q210 0 360 -152q152 -150 152 -360v-512q0 -212 -152 -362q-150 -150 -360 -150q-212 0 -362 150t-150 362zM256 512q0 -106 74 -182q76 -74 182 -74q104 0 180 74q76 76 76 182v512q0 104 -76 180t-180 76q-106 0 -182 -76 q-74 -76 -74 -180v-512z" />
<glyph unicode="P" d="M0 0v1536h512q210 0 360 -152q152 -150 152 -360q0 -212 -152 -362q-150 -150 -360 -150h-256v-512h-256zM256 768h256q104 0 180 74q76 76 76 182q0 104 -76 180t-180 76h-256v-512z" />
<glyph unicode="Q" d="M0 512v512q0 210 150 360q150 152 362 152q210 0 360 -152q152 -150 152 -360v-512q0 -176 -104 -308l104 -204h-256l-28 52q-104 -52 -228 -52q-212 0 -362 150t-150 362zM256 512q0 -106 74 -182q76 -74 182 -74q62 0 114 26l-114 230h256v512q0 104 -76 180t-180 76 q-106 0 -182 -76q-74 -76 -74 -180v-512z" />
<glyph unicode="R" d="M0 0v1536h512q210 0 360 -152q152 -150 152 -360q0 -212 -152 -362q-60 -62 -132 -98l284 -564h-256l-256 512h-256v-512h-256zM256 768h256q104 0 180 74q76 76 76 182q0 104 -76 180t-180 76h-256v-512z" />
<glyph unicode="S" d="M0 438h256q0 -90 74 -156q76 -62 182 -62q104 0 180 62q76 66 76 156t-76 155t-180 65q-212 0 -362 129t-150 311q0 180 150 308q150 130 362 130q210 0 360 -130q152 -128 152 -308h-256q0 88 -76 153t-180 65q-106 0 -182 -64q-74 -66 -74 -154q0 -92 74 -156 q76 -64 182 -64q210 0 360 -130q152 -130 152 -310t-152 -310q-150 -128 -360 -128q-212 0 -362 129t-150 309z" />
<glyph unicode="T" d="M0 1280v256h1024v-256h-384v-1280h-256v1280h-384z" />
<glyph unicode="U" d="M0 512v1024h256v-1024q0 -106 74 -182q76 -74 182 -74q104 0 180 74q76 76 76 182v1024h256v-1024q0 -212 -152 -362q-150 -150 -360 -150q-212 0 -362 150t-150 362z" />
<glyph unicode="V" d="M0 1536h256l256 -1024l256 1024h256l-384 -1536h-256z" />
<glyph unicode="W" d="M0 0v1536h256v-1024l256 512l256 -512v1024h256v-1536h-256l-256 512l-256 -512h-256z" />
<glyph unicode="X" d="M0 0l384 768l-384 768h256l256 -512l256 512h256l-384 -768l384 -768h-256l-256 512l-256 -512h-256z" />
<glyph unicode="Y" d="M0 1536h256l256 -512l256 512h256l-384 -768v-768h-256v768z" />
<glyph unicode="Z" d="M0 0l640 1280h-640v256h1024l-640 -1280h640v-256h-1024z" />
<glyph unicode="a" d="M0 0l384 1536h256l384 -1536h-256l-64 256h-384l-64 -256h-256zM384 512h256l-128 512z" />
<glyph unicode="b" d="M0 0v1536h512q210 0 360 -130q152 -128 152 -308q0 -182 -152 -312q-10 -10 -22 -18q12 -10 22 -20q152 -130 152 -310t-152 -310q-150 -128 -360 -128h-512zM256 220h256q104 0 180 62q76 66 76 156t-76 155t-180 65h-256v-438zM256 878h256q104 0 180 64t76 156 q0 88 -76 153t-180 65h-256v-438z" />
<glyph unicode="c" d="M0 512v512q0 210 150 360q150 152 362 152q210 0 360 -152q152 -150 152 -360h-256q0 104 -76 180t-180 76q-106 0 -182 -76q-74 -76 -74 -180v-512q0 -106 74 -182q76 -74 182 -74q104 0 180 74q76 76 76 182h256q0 -212 -152 -362q-150 -150 -360 -150q-212 0 -362 150 t-150 362z" />
<glyph unicode="d" d="M0 0v1536h512q210 0 360 -152q152 -150 152 -360v-512q0 -212 -152 -362q-150 -150 -360 -150h-512zM256 256h256q104 0 180 74q76 76 76 182v512q0 104 -76 180t-180 76h-256v-1024z" />
<glyph unicode="e" d="M0 0v1536h1024v-256h-768v-256h512v-256h-512v-512h768v-256h-1024z" />
<glyph unicode="f" d="M0 0v1536h1024v-256h-768v-256h512v-256h-512v-768h-256z" />
<glyph unicode="g" d="M0 512v512q0 210 150 360q150 152 362 152q210 0 360 -152q152 -150 152 -360h-256q0 104 -76 180t-180 76q-106 0 -182 -76q-74 -76 -74 -180v-512q0 -106 74 -182q76 -74 182 -74q104 0 180 74q76 76 76 182h-256v256h512v-256q0 -212 -152 -362q-150 -150 -360 -150 q-212 0 -362 150t-150 362z" />
<glyph unicode="h" d="M0 0v1536h256v-768h512v768h256v-1536h-256v512h-512v-512h-256z" />
<glyph unicode="i" horiz-adv-x="384" d="M0 0v1536h256v-1536h-256z" />
<glyph unicode="j" d="M0 512h256q0 -106 74 -182q76 -74 182 -74q104 0 180 74q76 76 76 182v1024h256v-1024q0 -212 -152 -362q-150 -150 -360 -150q-212 0 -362 150t-150 362z" />
<glyph unicode="k" horiz-adv-x="1024" d="M0 0v1536h256v-512l384 512h256l-576 -768l576 -768h-256l-384 512v-512h-256z" />
<glyph unicode="l" d="M0 0v1536h256v-1280h768v-256h-1024z" />
<glyph unicode="m" d="M0 0v1536h256l256 -512l256 512h256v-1536h-256v1024l-256 -512l-256 512v-1024h-256z" />
<glyph unicode="n" d="M0 0v1536h256l512 -1024v1024h256v-1536h-256l-512 1024v-1024h-256z" />
<glyph unicode="o" d="M0 512v512q0 210 150 360q150 152 362 152q210 0 360 -152q152 -150 152 -360v-512q0 -212 -152 -362q-150 -150 -360 -150q-212 0 -362 150t-150 362zM256 512q0 -106 74 -182q76 -74 182 -74q104 0 180 74q76 76 76 182v512q0 104 -76 180t-180 76q-106 0 -182 -76 q-74 -76 -74 -180v-512z" />
<glyph unicode="p" d="M0 0v1536h512q210 0 360 -152q152 -150 152 -360q0 -212 -152 -362q-150 -150 -360 -150h-256v-512h-256zM256 768h256q104 0 180 74q76 76 76 182q0 104 -76 180t-180 76h-256v-512z" />
<glyph unicode="q" d="M0 512v512q0 210 150 360q150 152 362 152q210 0 360 -152q152 -150 152 -360v-512q0 -176 -104 -308l104 -204h-256l-28 52q-104 -52 -228 -52q-212 0 -362 150t-150 362zM256 512q0 -106 74 -182q76 -74 182 -74q62 0 114 26l-114 230h256v512q0 104 -76 180t-180 76 q-106 0 -182 -76q-74 -76 -74 -180v-512z" />
<glyph unicode="r" d="M0 0v1536h512q210 0 360 -152q152 -150 152 -360q0 -212 -152 -362q-60 -62 -132 -98l284 -564h-256l-256 512h-256v-512h-256zM256 768h256q104 0 180 74q76 76 76 182q0 104 -76 180t-180 76h-256v-512z" />
<glyph unicode="s" d="M0 438h256q0 -90 74 -156q76 -62 182 -62q104 0 180 62q76 66 76 156t-76 155t-180 65q-212 0 -362 129t-150 311q0 180 150 308q150 130 362 130q210 0 360 -130q152 -128 152 -308h-256q0 88 -76 153t-180 65q-106 0 -182 -64q-74 -66 -74 -154q0 -92 74 -156 q76 -64 182 -64q210 0 360 -130q152 -130 152 -310t-152 -310q-150 -128 -360 -128q-212 0 -362 129t-150 309z" />
<glyph unicode="t" d="M0 1280v256h1024v-256h-384v-1280h-256v1280h-384z" />
<glyph unicode="u" d="M0 512v1024h256v-1024q0 -106 74 -182q76 -74 182 -74q104 0 180 74q76 76 76 182v1024h256v-1024q0 -212 -152 -362q-150 -150 -360 -150q-212 0 -362 150t-150 362z" />
<glyph unicode="v" d="M0 1536h256l256 -1024l256 1024h256l-384 -1536h-256z" />
<glyph unicode="w" d="M0 0v1536h256v-1024l256 512l256 -512v1024h256v-1536h-256l-256 512l-256 -512h-256z" />
<glyph unicode="x" d="M0 0l384 768l-384 768h256l256 -512l256 512h256l-384 -768l384 -768h-256l-256 512l-256 -512h-256z" />
<glyph unicode="y" d="M0 1536h256l256 -512l256 512h256l-384 -768v-768h-256v768z" />
<glyph unicode="z" d="M0 0l640 1280h-640v256h1024l-640 -1280h640v-256h-1024z" />
<glyph unicode="&#xc0;" d="M0 0l384 1536h256l384 -1536h-256l-64 256h-384l-64 -256h-256zM384 512h256l-128 512z" />
<glyph unicode="&#xc1;" d="M0 0l384 1536h256l384 -1536h-256l-64 256h-384l-64 -256h-256zM384 512h256l-128 512z" />
<glyph unicode="&#xc2;" d="M0 0l384 1536h256l384 -1536h-256l-64 256h-384l-64 -256h-256zM384 512h256l-128 512z" />
<glyph unicode="&#xc3;" d="M0 0l384 1536h256l384 -1536h-256l-64 256h-384l-64 -256h-256zM384 512h256l-128 512z" />
<glyph unicode="&#xc4;" d="M0 0l384 1536h256l384 -1536h-256l-64 256h-384l-64 -256h-256zM384 512h256l-128 512z" />
<glyph unicode="&#xc5;" d="M0 0l384 1536h256l384 -1536h-256l-64 256h-384l-64 -256h-256zM384 512h256l-128 512z" />
<glyph unicode="&#xc7;" d="M0 512v512q0 210 150 360q150 152 362 152q210 0 360 -152q152 -150 152 -360h-256q0 104 -76 180t-180 76q-106 0 -182 -76q-74 -76 -74 -180v-512q0 -106 74 -182q76 -74 182 -74q104 0 180 74q76 76 76 182h256q0 -212 -152 -362q-150 -150 -360 -150q-212 0 -362 150 t-150 362z" />
<glyph unicode="&#xc8;" d="M0 0v1536h1024v-256h-768v-256h512v-256h-512v-512h768v-256h-1024z" />
<glyph unicode="&#xc9;" d="M0 0v1536h1024v-256h-768v-256h512v-256h-512v-512h768v-256h-1024z" />
<glyph unicode="&#xca;" d="M0 0v1536h1024v-256h-768v-256h512v-256h-512v-512h768v-256h-1024z" />
<glyph unicode="&#xcb;" d="M0 0v1536h1024v-256h-768v-256h512v-256h-512v-512h768v-256h-1024z" />
<glyph unicode="&#xcc;" horiz-adv-x="384" d="M0 0v1536h256v-1536h-256z" />
<glyph unicode="&#xcd;" horiz-adv-x="384" d="M0 0v1536h256v-1536h-256z" />
<glyph unicode="&#xce;" horiz-adv-x="384" d="M0 0v1536h256v-1536h-256z" />
<glyph unicode="&#xcf;" horiz-adv-x="384" d="M0 0v1536h256v-1536h-256z" />
<glyph unicode="&#xd1;" d="M0 0v1536h256l512 -1024v1024h256v-1536h-256l-512 1024v-1024h-256z" />
<glyph unicode="&#xd2;" d="M0 512v512q0 210 150 360q150 152 362 152q210 0 360 -152q152 -150 152 -360v-512q0 -212 -152 -362q-150 -150 -360 -150q-212 0 -362 150t-150 362zM256 512q0 -106 74 -182q76 -74 182 -74q104 0 180 74q76 76 76 182v512q0 104 -76 180t-180 76q-106 0 -182 -76 q-74 -76 -74 -180v-512z" />
<glyph unicode="&#xd3;" d="M0 512v512q0 210 150 360q150 152 362 152q210 0 360 -152q152 -150 152 -360v-512q0 -212 -152 -362q-150 -150 -360 -150q-212 0 -362 150t-150 362zM256 512q0 -106 74 -182q76 -74 182 -74q104 0 180 74q76 76 76 182v512q0 104 -76 180t-180 76q-106 0 -182 -76 q-74 -76 -74 -180v-512z" />
<glyph unicode="&#xd4;" d="M0 512v512q0 210 150 360q150 152 362 152q210 0 360 -152q152 -150 152 -360v-512q0 -212 -152 -362q-150 -150 -360 -150q-212 0 -362 150t-150 362zM256 512q0 -106 74 -182q76 -74 182 -74q104 0 180 74q76 76 76 182v512q0 104 -76 180t-180 76q-106 0 -182 -76 q-74 -76 -74 -180v-512z" />
<glyph unicode="&#xd5;" d="M0 512v512q0 210 150 360q150 152 362 152q210 0 360 -152q152 -150 152 -360v-512q0 -212 -152 -362q-150 -150 -360 -150q-212 0 -362 150t-150 362zM256 512q0 -106 74 -182q76 -74 182 -74q104 0 180 74q76 76 76 182v512q0 104 -76 180t-180 76q-106 0 -182 -76 q-74 -76 -74 -180v-512z" />
<glyph unicode="&#xd6;" d="M0 512v512q0 210 150 360q150 152 362 152q210 0 360 -152q152 -150 152 -360v-512q0 -212 -152 -362q-150 -150 -360 -150q-212 0 -362 150t-150 362zM256 512q0 -106 74 -182q76 -74 182 -74q104 0 180 74q76 76 76 182v512q0 104 -76 180t-180 76q-106 0 -182 -76 q-74 -76 -74 -180v-512z" />
<glyph unicode="&#xd8;" d="M0 512v512q0 210 150 360q150 152 362 152q210 0 360 -152q152 -150 152 -360v-512q0 -212 -152 -362q-150 -150 -360 -150q-212 0 -362 150t-150 362zM256 512q0 -106 74 -182q76 -74 182 -74q104 0 180 74q76 76 76 182v512q0 104 -76 180t-180 76q-106 0 -182 -76 q-74 -76 -74 -180v-512z" />
<glyph unicode="&#xd9;" d="M0 512v1024h256v-1024q0 -106 74 -182q76 -74 182 -74q104 0 180 74q76 76 76 182v1024h256v-1024q0 -212 -152 -362q-150 -150 -360 -150q-212 0 -362 150t-150 362z" />
<glyph unicode="&#xda;" d="M0 512v1024h256v-1024q0 -106 74 -182q76 -74 182 -74q104 0 180 74q76 76 76 182v1024h256v-1024q0 -212 -152 -362q-150 -150 -360 -150q-212 0 -362 150t-150 362z" />
<glyph unicode="&#xdb;" d="M0 512v1024h256v-1024q0 -106 74 -182q76 -74 182 -74q104 0 180 74q76 76 76 182v1024h256v-1024q0 -212 -152 -362q-150 -150 -360 -150q-212 0 -362 150t-150 362z" />
<glyph unicode="&#xdc;" d="M0 512v1024h256v-1024q0 -106 74 -182q76 -74 182 -74q104 0 180 74q76 76 76 182v1024h256v-1024q0 -212 -152 -362q-150 -150 -360 -150q-212 0 -362 150t-150 362z" />
<glyph unicode="&#xe0;" d="M0 0l384 1536h256l384 -1536h-256l-64 256h-384l-64 -256h-256zM384 512h256l-128 512z" />
<glyph unicode="&#xe1;" d="M0 0l384 1536h256l384 -1536h-256l-64 256h-384l-64 -256h-256zM384 512h256l-128 512z" />
<glyph unicode="&#xe2;" d="M0 0l384 1536h256l384 -1536h-256l-64 256h-384l-64 -256h-256zM384 512h256l-128 512z" />
<glyph unicode="&#xe3;" d="M0 0l384 1536h256l384 -1536h-256l-64 256h-384l-64 -256h-256zM384 512h256l-128 512z" />
<glyph unicode="&#xe4;" d="M0 0l384 1536h256l384 -1536h-256l-64 256h-384l-64 -256h-256zM384 512h256l-128 512z" />
<glyph unicode="&#xe5;" d="M0 0l384 1536h256l384 -1536h-256l-64 256h-384l-64 -256h-256zM384 512h256l-128 512z" />
<glyph unicode="&#xe7;" d="M0 512v512q0 210 150 360q150 152 362 152q210 0 360 -152q152 -150 152 -360h-256q0 104 -76 180t-180 76q-106 0 -182 -76q-74 -76 -74 -180v-512q0 -106 74 -182q76 -74 182 -74q104 0 180 74q76 76 76 182h256q0 -212 -152 -362q-150 -150 -360 -150q-212 0 -362 150 t-150 362z" />
<glyph unicode="&#xe8;" d="M0 0v1536h1024v-256h-768v-256h512v-256h-512v-512h768v-256h-1024z" />
<glyph unicode="&#xe9;" d="M0 0v1536h1024v-256h-768v-256h512v-256h-512v-512h768v-256h-1024z" />
<glyph unicode="&#xea;" d="M0 0v1536h1024v-256h-768v-256h512v-256h-512v-512h768v-256h-1024z" />
<glyph unicode="&#xeb;" d="M0 0v1536h1024v-256h-768v-256h512v-256h-512v-512h768v-256h-1024z" />
<glyph unicode="&#xec;" horiz-adv-x="384" d="M0 0v1536h256v-1536h-256z" />
<glyph unicode="&#xed;" horiz-adv-x="384" d="M0 0v1536h256v-1536h-256z" />
<glyph unicode="&#xee;" horiz-adv-x="384" d="M0 0v1536h256v-1536h-256z" />
<glyph unicode="&#xef;" horiz-adv-x="384" d="M0 0v1536h256v-1536h-256z" />
<glyph unicode="&#xf1;" d="M0 0v1536h256l512 -1024v1024h256v-1536h-256l-512 1024v-1024h-256z" />
<glyph unicode="&#xf2;" d="M0 512v512q0 210 150 360q150 152 362 152q210 0 360 -152q152 -150 152 -360v-512q0 -212 -152 -362q-150 -150 -360 -150q-212 0 -362 150t-150 362zM256 512q0 -106 74 -182q76 -74 182 -74q104 0 180 74q76 76 76 182v512q0 104 -76 180t-180 76q-106 0 -182 -76 q-74 -76 -74 -180v-512z" />
<glyph unicode="&#xf3;" d="M0 512v512q0 210 150 360q150 152 362 152q210 0 360 -152q152 -150 152 -360v-512q0 -212 -152 -362q-150 -150 -360 -150q-212 0 -362 150t-150 362zM256 512q0 -106 74 -182q76 -74 182 -74q104 0 180 74q76 76 76 182v512q0 104 -76 180t-180 76q-106 0 -182 -76 q-74 -76 -74 -180v-512z" />
<glyph unicode="&#xf4;" d="M0 512v512q0 210 150 360q150 152 362 152q210 0 360 -152q152 -150 152 -360v-512q0 -212 -152 -362q-150 -150 -360 -150q-212 0 -362 150t-150 362zM256 512q0 -106 74 -182q76 -74 182 -74q104 0 180 74q76 76 76 182v512q0 104 -76 180t-180 76q-106 0 -182 -76 q-74 -76 -74 -180v-512z" />
<glyph unicode="&#xf5;" d="M0 512v512q0 210 150 360q150 152 362 152q210 0 360 -152q152 -150 152 -360v-512q0 -212 -152 -362q-150 -150 -360 -150q-212 0 -362 150t-150 362zM256 512q0 -106 74 -182q76 -74 182 -74q104 0 180 74q76 76 76 182v512q0 104 -76 180t-180 76q-106 0 -182 -76 q-74 -76 -74 -180v-512z" />
<glyph unicode="&#xf6;" d="M0 512v512q0 210 150 360q150 152 362 152q210 0 360 -152q152 -150 152 -360v-512q0 -212 -152 -362q-150 -150 -360 -150q-212 0 -362 150t-150 362zM256 512q0 -106 74 -182q76 -74 182 -74q104 0 180 74q76 76 76 182v512q0 104 -76 180t-180 76q-106 0 -182 -76 q-74 -76 -74 -180v-512z" />
<glyph unicode="&#xf8;" d="M0 512v512q0 210 150 360q150 152 362 152q210 0 360 -152q152 -150 152 -360v-512q0 -212 -152 -362q-150 -150 -360 -150q-212 0 -362 150t-150 362zM256 512q0 -106 74 -182q76 -74 182 -74q104 0 180 74q76 76 76 182v512q0 104 -76 180t-180 76q-106 0 -182 -76 q-74 -76 -74 -180v-512z" />
<glyph unicode="&#xf9;" d="M0 512v1024h256v-1024q0 -106 74 -182q76 -74 182 -74q104 0 180 74q76 76 76 182v1024h256v-1024q0 -212 -152 -362q-150 -150 -360 -150q-212 0 -362 150t-150 362z" />
<glyph unicode="&#xfa;" d="M0 512v1024h256v-1024q0 -106 74 -182q76 -74 182 -74q104 0 180 74q76 76 76 182v1024h256v-1024q0 -212 -152 -362q-150 -150 -360 -150q-212 0 -362 150t-150 362z" />
<glyph unicode="&#xfb;" d="M0 512v1024h256v-1024q0 -106 74 -182q76 -74 182 -74q104 0 180 74q76 76 76 182v1024h256v-1024q0 -212 -152 -362q-150 -150 -360 -150q-212 0 -362 150t-150 362z" />
<glyph unicode="&#xfc;" d="M0 512v1024h256v-1024q0 -106 74 -182q76 -74 182 -74q104 0 180 74q76 76 76 182v1024h256v-1024q0 -212 -152 -362q-150 -150 -360 -150q-212 0 -362 150t-150 362z" />
<glyph unicode="&#xff;" d="M0 1536h256l256 -512l256 512h256l-384 -768v-768h-256v768z" />
<glyph unicode="&#x178;" d="M0 1536h256l256 -512l256 512h256l-384 -768v-768h-256v768z" />
<glyph unicode="&#x2000;" horiz-adv-x="770" />
<glyph unicode="&#x2001;" horiz-adv-x="1540" />
<glyph unicode="&#x2002;" horiz-adv-x="770" />
<glyph unicode="&#x2003;" horiz-adv-x="1540" />
<glyph unicode="&#x2004;" horiz-adv-x="513" />
<glyph unicode="&#x2005;" horiz-adv-x="385" />
<glyph unicode="&#x2006;" horiz-adv-x="256" />
<glyph unicode="&#x2007;" horiz-adv-x="256" />
<glyph unicode="&#x2008;" horiz-adv-x="192" />
<glyph unicode="&#x2009;" horiz-adv-x="308" />
<glyph unicode="&#x200a;" horiz-adv-x="85" />
<glyph unicode="&#x202f;" horiz-adv-x="308" />
<glyph unicode="&#x205f;" horiz-adv-x="385" />
<glyph unicode="&#x25fc;" horiz-adv-x="1540" d="M0 0v1540h1540v-1540h-1540z" />
</font>
</defs>
</svg>
